<?xml version="1.0" encoding="utf-8"?>
<!-- Generator: Adobe Illustrator 21.1.0, SVG Export Plug-In . SVG Version: 6.00 Build 0)  -->
<svg version="1.1" id="Layer_1" xmlns="http://www.w3.org/2000/svg" xmlns:xlink="http://www.w3.org/1999/xlink" x="0px" y="0px"
	 viewBox="0 0 775 258.3" style="enable-background:new 0 0 775 258.3;" xml:space="preserve">
<style type="text/css">
	.st0{clip-path:url(#SVGID_2_);}
	.st1{fill:#FDFBE1;}
	.st2{font-family:'Arial-BoldMT';}
	.st3{font-size:2px;}
</style>
<g>
	<defs>
		<rect id="SVGID_1_" width="775" height="258.3"/>
	</defs>
	<clipPath id="SVGID_2_">
		<use xlink:href="#SVGID_1_"  style="overflow:visible;"/>
	</clipPath>
	<g transform="translate(775 258.333) rotate(180)" class="st0">
		<g transform="translate(-165.806 -320.375)">
			<path class="st1" d="M601.9,323.1l115.6,80.6l18.1-22l-115.6-80.6L601.9,323.1z"/>
			<path class="st1" d="M262,521l103.5,89.7l-18.1,22l-103.5-89.7L262,521z"/>
			<path class="st1" d="M298.1,477l103.5,89.7l-18.1,22L280.1,499L298.1,477z"/>
			<path class="st1" d="M334.3,433.1l103.5,89.7l-18.1,22l-103.5-89.7L334.3,433.1z"/>
			<path class="st1" d="M527.7,413.3l115.6,80.6l18.1-22l-115.6-80.6L527.7,413.3z"/>
			<path class="st1" d="M491.5,457.2l115.6,80.6l18.1-22l-115.6-80.6L491.5,457.2z"/>
			<path class="st1" d="M372.3,386.8l103.5,89.7l-18.1,22l-103.5-89.7L372.3,386.8z"/>
			<path class="st1" d="M408.5,342.9L512,432.6l-18.1,22l-103.5-89.7L408.5,342.9z"/>
			<path class="st1" d="M444.6,299l103.5,89.7l-18.1,22l-103.5-89.7L444.6,299z"/>
			<path class="st1" d="M456,500.5l115.6,80.6l18.1-22L474,478.5L456,500.5z"/>
			<path class="st1" d="M419.8,544.4L535.4,625l18.1-22l-115.6-80.6L419.8,544.4z"/>
			<path class="st1" d="M383.7,588.4l115.6,80.6l18.1-22l-115.6-80.6L383.7,588.4z"/>
			<path class="st1" d="M552.4,167.9L656,257.5l-18.1,22l-103.5-89.7L552.4,167.9z"/>
			<path class="st1" d="M346.6,633.4L462.2,714l18.1-22l-115.6-80.6L346.6,633.4z"/>
			<path class="st1" d="M310.5,677.4l117.9,77.7l25.5-31L336,646.4L310.5,677.4z"/>
			<path class="st1" d="M452.6,73.7l110.6,81.1l18.1-22L470.7,51.7L452.6,73.7z"/>
			<path class="st1" d="M380.3,161.5L491,242.6l18.1-22l-110.6-81.1L380.3,161.5z"/>
			<path class="st1" d="M342.3,207.8l110.6,81.1l18.1-22l-110.6-81.1L342.3,207.8z"/>
			<path class="st1" d="M306.1,251.7l110.6,81.1l18.1-22l-110.6-81.1L306.1,251.7z"/>
			<path class="st1" d="M270,295.7l110.6,81.1l18.1-22l-110.6-81.1L270,295.7z"/>
			<path class="st1" d="M234.4,338.9L345.1,420l18.1-22L252.5,317L234.4,338.9z"/>
			<path class="st1" d="M198.3,382.9l110.6,81.1l18.1-22l-110.6-81.1L198.3,382.9z"/>
			<path class="st1" d="M162.2,426.8l110.6,81.1l18.1-22l-110.6-81.1L162.2,426.8z"/>
			<path class="st1" d="M125.1,471.9l110.6,81.1l18.1-22l-110.6-81.1L125.1,471.9z"/>
			<path class="st1" d="M80.5,526l112.3,79l26.6-32.3l-112.3-79L80.5,526z"/>
			<path class="st1" d="M224.2,567l102.1,91.4L301,689.2l-102.1-91.4L224.2,567z"/>
			<path class="st1" d="M661.1,251.1l115.6,80.6l18.1-22l-115.6-80.6L661.1,251.1z"/>
			<path class="st1" d="M624.8,295.2l115.6,80.6l18.1-22l-115.6-80.6L624.8,295.2z"/>
			<path class="st1" d="M588.7,339.1l115.6,80.6l18.1-22l-115.6-80.6L588.7,339.1z"/>
			<path class="st1" d="M275.2,504.9l103.5,89.7l-18.1,22l-103.5-89.7L275.2,504.9z"/>
			<path class="st1" d="M311.3,461l103.5,89.7l-18.1,22L293.3,483L311.3,461z"/>
			<path class="st1" d="M347.5,417.1L451,506.8l-18.1,22L329.4,439L347.5,417.1z"/>
			<path class="st1" d="M553.1,382.4L668.6,463l18.1-22l-115.6-80.6L553.1,382.4z"/>
			<path class="st1" d="M517,426.3l115.6,80.6l18.1-22L535,404.4L517,426.3z"/>
			<path class="st1" d="M480.8,470.3l115.6,80.6l18.1-22l-115.6-80.6L480.8,470.3z"/>
			<path class="st1" d="M383,373.8l103.5,89.7l-18.1,22L365,395.8L383,373.8z"/>
			<path class="st1" d="M419.2,329.9l103.5,89.7l-18.1,22l-103.5-89.7L419.2,329.9z"/>
			<path class="st1" d="M455.3,286l103.5,89.7l-18.1,22l-103.5-89.7L455.3,286z"/>
			<path class="st1" d="M443.8,515.3l115.6,80.6l18.1-22l-115.6-80.6L443.8,515.3z"/>
			<path class="st1" d="M407.6,559.3l115.6,80.6l18.1-22l-115.6-80.6L407.6,559.3z"/>
			<path class="st1" d="M505.5,224.9l101.4,92.3l-29.1,35.3l-101.4-92.3L505.5,224.9z"/>
			<path class="st1" d="M528.5,196.9L632,286.6l-18.1,22l-103.5-89.7L528.5,196.9z"/>
			<path class="st1" d="M565,152.5l114.1,76.6l-28.6,35L547,174.5L565,152.5z"/>
			<path class="st1" d="M437.9,91.5l110.6,81.1l18.1-22L456,69.6L437.9,91.5z"/>
			<path class="st1" d="M403.3,133.6l110.6,81.1l18.1-22l-110.6-81.1L403.3,133.6z"/>
			<path class="st1" d="M367.1,177.6l110.6,81.1l18.1-22l-110.6-81.1L367.1,177.6z"/>
			<path class="st1" d="M331.6,220.8l110.6,81.1l18.1-22l-110.6-81.1L331.6,220.8z"/>
			<path class="st1" d="M295.4,264.8l110.6,81.1l18.1-22l-110.6-81.1L295.4,264.8z"/>
			<path class="st1" d="M222.2,353.8l110.6,81.1l18.1-22l-110.6-81.1L222.2,353.8z"/>
			<path class="st1" d="M186.1,397.7l110.6,81.1l18.1-22l-110.6-81.1L186.1,397.7z"/>
			<path class="st1" d="M150,441.6l110.6,81.1l18.1-22L168,419.6L150,441.6z"/>
			<path class="st1" d="M63.5,331.2L167,420.9l18.1-22L81.6,309.2L63.5,331.2z"/>
			<path class="st1" d="M99.6,287.2l103.5,89.7l18.1-22l-103.5-89.7L99.6,287.2z"/>
			<path class="st1" d="M135.8,243.3L239.3,333l18.1-22l-103.5-89.7L135.8,243.3z"/>
			<path class="st1" d="M173.8,197l103.5,89.7l18.1-22l-103.5-89.7L173.8,197z"/>
			<path class="st1" d="M210,153.1l103.5,89.7l18.1-22L228,131.1L210,153.1z"/>
			<path class="st1" d="M246.1,109.2l103.5,89.7l18.1-22L264.2,87.2L246.1,109.2z"/>
			<path class="st1" d="M281.7,65.9l103.5,89.7l18.1-22L299.7,43.9L281.7,65.9z"/>
			<path class="st1" d="M317.8,22l103.5,89.7l18.1-22L335.9,0L317.8,22z"/>
			<path class="st1" d="M0,408.4L101.9,500l26.2-31.9L26.2,376.5L0,408.4z"/>
			<path class="st1" d="M38.6,361.4l103.5,89.7l18.1-22L56.7,339.4L38.6,361.4z"/>
			<path class="st1" d="M76.7,315.1l103.5,89.7l18.1-22L94.8,293.1L76.7,315.1z"/>
			<path class="st1" d="M112.8,271.2l103.5,89.7l18.1-22l-103.5-89.7L112.8,271.2z"/>
			<path class="st1" d="M149,227.3L252.5,317l18.1-22L167,205.3L149,227.3z"/>
			<path class="st1" d="M184.5,184l103.5,89.7l18.1-22L202.6,162L184.5,184z"/>
			<path class="st1" d="M220.7,140.1l103.5,89.7l18.1-22l-103.5-89.7L220.7,140.1z"/>
			<text transform="matrix(1 0 0 1 499.7367 473.8584)" class="st1 st2 st3">BACK 2</text>
			<text transform="matrix(1 0 0 1 366.2396 473.9561)" class="st1 st2 st3">BACK 1</text>
		</g>
	</g>
</g>
</svg>
